<svg xmlns="http://www.w3.org/2000/svg" version="1.1" xmlns:xlink="http://www.w3.org/1999/xlink" xmlns:svgjs="http://svgjs.dev/svgjs" width="24" height="24"><svg height="24" viewBox="0 0 24 24" width="24" xmlns="http://www.w3.org/2000/svg"><g fill="none"><path d="m0 0h24v24h-24z"></path><path d="m12 2c5.5228 0 10 4.47715 10 10 0 5.5228-4.4772 10-10 10-5.52285 0-10-4.4772-10-10 0-5.52285 4.47715-10 10-10zm3 3.99999828c-.2993 0-.5679.13150172-.7512.33987172l-1.6507-.33016c-.1348-.02695-.2747.00275-.3869.08212s-.1867.20142-.2062.33746l-.3684 2.57872c-1.4223.06283-2.73845.49288-3.7456 1.19789-.19223.1346-.37551.2812-.54701.439-.19512-.0929-.41348-.1449017-.64398-.1449017-.82842 0-1.5.6716017-1.5 1.5 0 .5773017.32608 1.0784017.80409 1.3291017l-.0041.1708983c0 1.3824017.80176 2.5316017 1.891 3.2941017 1.09241.7647 2.5483 1.2058983 4.109 1.2058983s3.0166-.4411983 4.109-1.2058983c1.0892-.7625 1.891-1.9117 1.891-3.2941017l-.0041-.1708983c.478-.2507.8041-.7518.8041-1.3291017 0-.8283983-.6716-1.5-1.5-1.5-.2305 0-.4489.0520017-.644.1449017-.1715-.1578-.3548-.3044-.547-.439-.9405-.65835-2.1504-1.07693-3.4647-1.18062l.2759-1.93133 1.1322.22644c.1336.39515.5074.67960828.9476.67960828.5523 0 1-.44770828 1-1 0-.55227828-.4477-1-1-1zm-5.5 6.00000172c.8284 0 1.5.6716 1.5 1.5s-.6716 1.5-1.5 1.5c-.82843 0-1.5-.6716-1.5-1.5s.67157-1.5 1.5-1.5zm5 0c.8284 0 1.5.6716 1.5 1.5s-.6716 1.5-1.5 1.5-1.5-.6716-1.5-1.5.6716-1.5 1.5-1.5z" fill="#09244b"></path></g></svg><style>@media (prefers-color-scheme: light) { :root { filter: none; } }
@media (prefers-color-scheme: dark) { :root { filter: none; } }
</style></svg>